<svg width="11" height="18" viewBox="0 0 11 18" fill="none" xmlns="http://www.w3.org/2000/svg">
<path d="M0.25 18L0 15.8L2.85 7.95C3.1 8.18333 3.37083 8.37917 3.6625 8.5375C3.95417 8.69583 4.26667 8.81667 4.6 8.9L1.85 16.45L0.25 18ZM10.75 18L9.15 16.45L6.4 8.9C6.73333 8.81667 7.04583 8.69583 7.3375 8.5375C7.62917 8.37917 7.9 8.18333 8.15 7.95L11 15.8L10.75 18ZM5.5 8C4.66667 8 3.95833 7.70833 3.375 7.125C2.79167 6.54167 2.5 5.83333 2.5 5C2.5 4.35 2.6875 3.77083 3.0625 3.2625C3.4375 2.75417 3.91667 2.4 4.5 2.2V0H6.5V2.2C7.08333 2.4 7.5625 2.75417 7.9375 3.2625C8.3125 3.77083 8.5 4.35 8.5 5C8.5 5.83333 8.20833 6.54167 7.625 7.125C7.04167 7.70833 6.33333 8 5.5 8ZM5.5 6C5.78333 6 6.02083 5.90417 6.2125 5.7125C6.40417 5.52083 6.5 5.28333 6.5 5C6.5 4.71667 6.40417 4.47917 6.2125 4.2875C6.02083 4.09583 5.78333 4 5.5 4C5.21667 4 4.97917 4.09583 4.7875 4.2875C4.59583 4.47917 4.5 4.71667 4.5 5C4.5 5.28333 4.59583 5.52083 4.7875 5.7125C4.97917 5.90417 5.21667 6 5.5 6Z" fill="#003D9B"/>
</svg>
